<svg xmlns="http://www.w3.org/2000/svg" xmlns:xlink="http://www.w3.org/1999/xlink" xmlns:sketch="http://www.bohemiancoding.com/sketch/ns" viewBox="0 0 22 26.25" version="1.1" x="0px" y="0px"><title>keypad</title><description>Created with Sketch (http://www.bohemiancoding.com/sketch)</description><g stroke="none" stroke-width="1" fill="none" fill-rule="evenodd" sketch:type="MSPage"><path d="M2.5,5 C3.88071194,5 5,3.88071194 5,2.5 C5,1.11928805 3.88071194,0 2.5,0 C1.11928805,0 0,1.11928805 0,2.5 C0,3.88071194 1.11928805,5 2.5,5 Z M11,5 C12.380712,5 13.5,3.88071194 13.5,2.5 C13.5,1.11928805 12.380712,0 11,0 C9.61928805,0 8.5,1.11928805 8.5,2.5 C8.5,3.88071194 9.61928805,5 11,5 Z M19.5,5 C20.8807119,5 22,3.88071194 22,2.5 C22,1.11928805 20.8807119,0 19.5,0 C18.1192881,0 17,1.11928805 17,2.5 C17,3.88071194 18.1192881,5 19.5,5 Z M2.5,13 C3.88071194,13 5,11.8807119 5,10.5 C5,9.11928806 3.88071194,8 2.5,8 C1.11928805,8 0,9.11928806 0,10.5 C0,11.8807119 1.11928805,13 2.5,13 Z M11,13 C12.380712,13 13.5,11.8807119 13.5,10.5 C13.5,9.11928806 12.380712,8 11,8 C9.61928805,8 8.5,9.11928806 8.5,10.5 C8.5,11.8807119 9.61928805,13 11,13 Z M19.5,13 C20.8807119,13 22,11.8807119 22,10.5 C22,9.11928806 20.8807119,8 19.5,8 C18.1192881,8 17,9.11928806 17,10.5 C17,11.8807119 18.1192881,13 19.5,13 Z M2.5,21 C3.88071194,21 5,19.8807119 5,18.5 C5,17.1192881 3.88071194,16 2.5,16 C1.11928805,16 0,17.1192881 0,18.5 C0,19.8807119 1.11928805,21 2.5,21 Z M11,21 C12.380712,21 13.5,19.8807119 13.5,18.5 C13.5,17.1192881 12.380712,16 11,16 C9.61928805,16 8.5,17.1192881 8.5,18.5 C8.5,19.8807119 9.61928805,21 11,21 Z M19.5,21 C20.8807119,21 22,19.8807119 22,18.5 C22,17.1192881 20.8807119,16 19.5,16 C18.1192881,16 17,17.1192881 17,18.5 C17,19.8807119 18.1192881,21 19.5,21 Z" fill="#000000" sketch:type="MSShapeGroup"/></g><text x="0" y="36" fill="#000000" font-size="5px" font-weight="bold" font-family="'Helvetica Neue', Helvetica, Arial-Unicode, Arial, Sans-serif">Created by Pham Thi Dieu Linh</text><text x="0" y="41" fill="#000000" font-size="5px" font-weight="bold" font-family="'Helvetica Neue', Helvetica, Arial-Unicode, Arial, Sans-serif">from the Noun Project</text></svg>